<?xml version="1.0" encoding="UTF-8"?><svg width="279.12pt" height="78pt" version="1.1" viewBox="0 0 279.12 78" xmlns="http://www.w3.org/2000/svg" xmlns:xlink="http://www.w3.org/1999/xlink"><defs><g id="l"><path d="m0.67188 0 1.9375-2.6406-1.7969-2.4531h0.95312l0.8125 1.125c0.09375 0.13672 0.19141 0.27734 0.29688 0.42188 0.10156 0.14844 0.20312 0.29297 0.29688 0.4375h0.046875c0.082031-0.14453 0.17578-0.28906 0.28125-0.4375 0.10156-0.15625 0.20312-0.30078 0.29688-0.4375l0.75-1.1094h0.92188l-1.8125 2.5312 1.9375 2.5625h-0.9375l-0.89062-1.1719c-0.10547-0.14453-0.21484-0.29688-0.32812-0.45312-0.11719-0.16406-0.23047-0.32031-0.34375-0.46875h-0.03125c-0.10547 0.14844-0.21484 0.29688-0.32812 0.45312-0.10547 0.15625-0.21094 0.3125-0.3125 0.46875l-0.82812 1.1719z"/></g><g id="b"><path d="m1.375 2.1875c-0.11719 0-0.23438-0.011719-0.35938-0.03125-0.11719-0.023437-0.21875-0.046875-0.3125-0.078125l0.17188-0.67188c0.070313 0.019531 0.14453 0.035156 0.21875 0.046875 0.082031 0.007813 0.16406 0.015625 0.25 0.015625 0.35156 0 0.64062-0.10547 0.85938-0.3125 0.22656-0.19922 0.40625-0.45312 0.53125-0.76562l0.15625-0.375-2.375-5.1094h0.85938l1.25 2.8281c0.10156 0.21875 0.20703 0.46094 0.3125 0.71875 0.10156 0.25 0.20703 0.5 0.3125 0.75h0.046875c0.09375-0.23828 0.1875-0.48438 0.28125-0.73438 0.09375-0.25781 0.17969-0.50391 0.26562-0.73438l1.1094-2.8281h0.8125l-2.2344 5.5156c-0.125 0.33203-0.28125 0.63281-0.46875 0.90625-0.1875 0.26953-0.42188 0.47656-0.70312 0.625-0.27344 0.15625-0.60156 0.23438-0.98438 0.23438z"/></g><g id="a"><path d="m2.5781 0.125c-0.3125 0-0.60547-0.058594-0.875-0.17188-0.26172-0.11328-0.46875-0.28125-0.625-0.5s-0.23438-0.47266-0.23438-0.76562c0-0.57031 0.28516-1.0039 0.85938-1.2969 0.57031-0.30078 1.5156-0.50391 2.8281-0.60938-0.011719-0.22656-0.058594-0.44141-0.14062-0.64062-0.085937-0.19531-0.22656-0.35156-0.42188-0.46875-0.19922-0.11328-0.46094-0.17188-0.78125-0.17188-0.21875 0-0.4375 0.03125-0.65625 0.09375-0.21094 0.054687-0.41406 0.125-0.60938 0.21875-0.1875 0.09375-0.35938 0.19531-0.51562 0.29688l-0.34375-0.59375c0.16406-0.10156 0.36719-0.21094 0.60938-0.32812 0.25-0.125 0.50781-0.22266 0.78125-0.29688 0.28125-0.070313 0.57031-0.10938 0.875-0.10938 0.46875 0 0.85156 0.089844 1.1562 0.26562 0.30078 0.17969 0.52344 0.42188 0.67188 0.73438 0.15625 0.30469 0.23438 0.66797 0.23438 1.0938v3.125h-0.70312l-0.078125-0.6875h-0.03125c-0.27344 0.21875-0.58594 0.41406-0.9375 0.57812-0.34375 0.15625-0.69922 0.23438-1.0625 0.23438zm0.23438-0.6875c0.28906 0 0.57812-0.066406 0.85938-0.20312 0.28906-0.13281 0.57812-0.31641 0.85938-0.54688v-1.3438c-0.73047 0.0625-1.3047 0.15234-1.7188 0.26562-0.40625 0.10547-0.69922 0.24609-0.875 0.42188-0.16797 0.16797-0.25 0.36719-0.25 0.59375 0 0.1875 0.050781 0.34375 0.15625 0.46875 0.10156 0.11719 0.23828 0.20312 0.40625 0.26562 0.17578 0.054687 0.36328 0.078125 0.5625 0.078125z"/></g><g id="f"><path d="m4.25 0.125c-0.54297 0-0.96094-0.15625-1.25-0.46875-0.28125-0.3125-0.42188-0.76562-0.42188-1.3594v-5.0469h-1.7344v-0.70312h2.5938v5.8125c0 0.36719 0.085938 0.63281 0.26562 0.79688 0.1875 0.16797 0.42969 0.25 0.73438 0.25 0.14453 0 0.29688-0.015625 0.45312-0.046875 0.15625-0.039063 0.32812-0.10156 0.51562-0.1875l0.21875 0.65625c-0.23047 0.085938-0.44922 0.15234-0.65625 0.20312-0.19922 0.0625-0.4375 0.09375-0.71875 0.09375z"/></g><g id="e"><path d="m0.96875 2.1406v-7.2344h0.71875l0.078125 0.65625h0.03125c0.22656-0.22656 0.5-0.41406 0.8125-0.5625 0.3125-0.14453 0.625-0.21875 0.9375-0.21875 0.45703 0 0.84375 0.10938 1.1562 0.32812 0.3125 0.21094 0.54688 0.51172 0.70312 0.90625 0.16406 0.38672 0.25 0.84375 0.25 1.375 0 0.5625-0.10938 1.0547-0.32812 1.4688-0.21875 0.41797-0.50781 0.73438-0.85938 0.95312-0.34375 0.20703-0.71875 0.3125-1.125 0.3125-0.23047 0-0.48438-0.058594-0.76562-0.17188-0.27344-0.11328-0.52344-0.27344-0.75-0.48438h-0.03125l0.03125 0.95312v1.7188zm2.2188-2.7344c0.30078 0 0.57031-0.078125 0.8125-0.23438 0.23828-0.16406 0.42578-0.39844 0.5625-0.70312 0.13281-0.30078 0.20312-0.66016 0.20312-1.0781 0-0.375-0.054687-0.70312-0.15625-0.98438-0.09375-0.28125-0.24609-0.5-0.45312-0.65625-0.21094-0.15625-0.48438-0.23438-0.82812-0.23438-0.23047 0-0.47656 0.0625-0.73438 0.1875-0.25 0.11719-0.50781 0.30469-0.76562 0.5625v2.5469c0.25 0.21094 0.49219 0.35938 0.73438 0.45312 0.25 0.09375 0.45703 0.14062 0.625 0.14062z"/></g><g id="d"><path d="m0.96875 0v-7.4531h0.85938v2.0312l-0.046875 1.2031h0.03125c0.25781-0.28125 0.53906-0.51562 0.84375-0.70312 0.3125-0.19531 0.66406-0.29688 1.0625-0.29688 0.59375 0 1.0312 0.17969 1.3125 0.53125 0.28906 0.34375 0.4375 0.85547 0.4375 1.5312v3.1562h-0.85938v-3.0469c0-0.47656-0.089844-0.83203-0.26562-1.0625-0.17969-0.23828-0.48047-0.35938-0.90625-0.35938-0.29297 0-0.55859 0.078125-0.79688 0.23438-0.24219 0.14844-0.51172 0.375-0.8125 0.6875v3.5469z"/></g><g id="c"><path d="m0.89062-4.25v-0.65625h4.5v0.65625zm0 2.25v-0.65625h4.5v0.65625z"/></g><g id="n"><path d="m0.76562 0v-0.51562c0.75-0.65625 1.3828-1.2383 1.9062-1.75 0.51953-0.50781 0.91406-0.96094 1.1875-1.3594 0.26953-0.40625 0.40625-0.79688 0.40625-1.1719 0-0.38281-0.12109-0.69531-0.35938-0.9375-0.23047-0.25-0.59375-0.375-1.0938-0.375-0.3125 0-0.60547 0.078125-0.875 0.23438-0.27344 0.15625-0.51172 0.35156-0.71875 0.57812l-0.5-0.5c0.30078-0.30078 0.625-0.53906 0.96875-0.71875 0.34375-0.1875 0.75391-0.28125 1.2344-0.28125 0.44531 0 0.83203 0.085937 1.1562 0.25 0.32031 0.15625 0.57031 0.38281 0.75 0.67188 0.17578 0.29297 0.26562 0.63672 0.26562 1.0312 0 0.42969-0.13281 0.85547-0.39062 1.2812-0.25 0.41797-0.60938 0.86719-1.0781 1.3438-0.46094 0.46875-0.99609 0.98047-1.6094 1.5312 0.20703-0.019531 0.41406-0.035156 0.625-0.046875 0.21875-0.007813 0.42578-0.015625 0.625-0.015625h2.2031v0.75z"/></g><g id="m"><path d="m2.7969-1.0938v-2.0312h-1.9062v-0.65625h1.9062v-2.0469h0.6875v2.0469h1.9062v0.65625h-1.9062v2.0312z"/></g><g id="q"><path d="m1.0156 0v-0.71875h1.9219v-4.9062h-1.5v-0.5625c0.26953-0.03125 0.50391-0.070313 0.70312-0.125 0.20703-0.050781 0.39453-0.10156 0.5625-0.15625 0.16406-0.0625 0.31641-0.12891 0.45312-0.20312h0.64062v5.9531h1.75v0.71875z"/></g><g id="p"><path d="m3.0938 2.3438c-0.49219 0-0.91406-0.058594-1.2656-0.17188-0.34375-0.10547-0.60938-0.26562-0.79688-0.48438-0.1875-0.21094-0.28125-0.46094-0.28125-0.75 0-0.21094 0.070313-0.41406 0.21875-0.60938 0.14453-0.19922 0.35156-0.375 0.625-0.53125v-0.03125c-0.13672-0.082031-0.26172-0.1875-0.375-0.3125-0.10547-0.13281-0.15625-0.3125-0.15625-0.53125 0-0.15625 0.050781-0.31641 0.15625-0.48438 0.10156-0.17578 0.25391-0.33203 0.45312-0.46875v-0.046875c-0.17969-0.125-0.32812-0.29688-0.45312-0.51562-0.11719-0.22656-0.17188-0.49219-0.17188-0.79688 0-0.375 0.09375-0.69531 0.28125-0.96875 0.1875-0.26953 0.42969-0.47656 0.73438-0.625 0.30078-0.15625 0.62891-0.23438 0.98438-0.23438 0.28125 0 0.53125 0.042969 0.75 0.125h2.1094v0.70312h-1.3281c0.125 0.125 0.22656 0.28125 0.3125 0.46875 0.082031 0.17969 0.125 0.36719 0.125 0.5625 0 0.36719-0.089844 0.67969-0.26562 0.9375-0.17969 0.26172-0.41797 0.46484-0.71875 0.60938-0.29297 0.13672-0.62109 0.20312-0.98438 0.20312-0.13672 0-0.28125-0.015625-0.4375-0.046875-0.14844-0.03125-0.28906-0.078125-0.42188-0.14062-0.125 0.074219-0.22656 0.16406-0.29688 0.26562-0.0625 0.09375-0.09375 0.19922-0.09375 0.3125 0 0.19922 0.085938 0.35156 0.26562 0.45312 0.1875 0.09375 0.44531 0.14062 0.78125 0.14062h1.1406c0.65625 0 1.1406 0.09375 1.4531 0.28125 0.32031 0.17969 0.48438 0.47656 0.48438 0.90625 0 0.3125-0.11719 0.60156-0.34375 0.875-0.23047 0.28125-0.55859 0.5-0.98438 0.65625-0.41797 0.16406-0.91797 0.25-1.5 0.25zm-0.046875-4.5312c0.21875 0 0.41406-0.046875 0.59375-0.14062 0.17578-0.10156 0.31641-0.24219 0.42188-0.42188 0.10156-0.1875 0.15625-0.39844 0.15625-0.64062 0-0.23828-0.054687-0.44531-0.15625-0.625-0.10547-0.17578-0.24609-0.3125-0.42188-0.40625-0.17969-0.10156-0.375-0.15625-0.59375-0.15625-0.21094 0-0.40234 0.054687-0.57812 0.15625-0.17969 0.09375-0.32422 0.23047-0.4375 0.40625-0.10547 0.17969-0.15625 0.38672-0.15625 0.625 0 0.24219 0.050781 0.45312 0.15625 0.64062 0.11328 0.17969 0.25781 0.32031 0.4375 0.42188 0.17578 0.09375 0.36719 0.14062 0.57812 0.14062zm0.10938 3.9062c0.40625 0 0.75-0.054687 1.0312-0.15625 0.28125-0.09375 0.5-0.21875 0.65625-0.375 0.15625-0.14844 0.23438-0.30859 0.23438-0.48438 0-0.25-0.10156-0.41797-0.29688-0.5-0.1875-0.085937-0.47656-0.125-0.85938-0.125h-1c-0.14844 0-0.28906-0.0078125-0.42188-0.015625-0.125-0.011719-0.24609-0.03125-0.35938-0.0625-0.23047 0.13281-0.39844 0.26953-0.5 0.40625-0.09375 0.14453-0.14062 0.28906-0.14062 0.4375 0 0.26953 0.14062 0.48438 0.42188 0.64062s0.69141 0.23438 1.2344 0.23438z"/></g><g id="k"><path d="m0.60938 0v-5.0938h0.6875l0.078125 0.67188h0.015625c0.13281-0.23828 0.28516-0.42969 0.45312-0.57812 0.17578-0.14453 0.41016-0.21875 0.70312-0.21875 0.25781 0 0.46875 0.074219 0.625 0.21875 0.15625 0.14844 0.26953 0.37109 0.34375 0.67188 0.14453-0.28125 0.30469-0.5 0.48438-0.65625 0.17578-0.15625 0.41016-0.23438 0.70312-0.23438 0.36328 0 0.64453 0.13672 0.84375 0.40625 0.19531 0.27344 0.29688 0.66406 0.29688 1.1719v3.6406h-0.85938v-3.5781c0-0.59375-0.18359-0.89062-0.54688-0.89062-0.17969 0-0.32422 0.070312-0.4375 0.20312-0.11719 0.125-0.24219 0.32031-0.375 0.57812v3.6875h-0.79688v-3.5781c0-0.28906-0.042969-0.50781-0.125-0.65625-0.085937-0.15625-0.21875-0.23438-0.40625-0.23438-0.16797 0-0.32031 0.070312-0.45312 0.20312-0.125 0.125-0.25 0.32031-0.375 0.57812v3.6875z"/></g><g id="j"><path d="m1.8906-1.1562-0.45312-0.3125 1.1406-1.7344-1.7031-0.73438 0.17188-0.48438 1.75 0.57812 0.09375-1.9844h0.5l0.09375 1.9844 1.75-0.57812 0.17188 0.48438-1.7031 0.73438 1.1406 1.7344-0.45312 0.3125-1.25-1.6719z"/></g><g id="i"><path d="m3.3438 0.125c-0.25 0-0.51562-0.058594-0.79688-0.17188-0.28125-0.125-0.54297-0.29688-0.78125-0.51562h-0.03125l-0.0625 0.5625h-0.70312v-7.4531h0.85938v2.0312l-0.03125 0.98438h0.03125c0.22656-0.23828 0.49219-0.42578 0.79688-0.5625 0.3125-0.14453 0.61328-0.21875 0.90625-0.21875 0.46875 0 0.85938 0.10938 1.1719 0.32812 0.3125 0.21094 0.54688 0.51172 0.70312 0.90625 0.16406 0.38672 0.25 0.83984 0.25 1.3594 0 0.57422-0.10938 1.0703-0.32812 1.4844-0.21094 0.41797-0.49219 0.73438-0.84375 0.95312-0.34375 0.20703-0.72656 0.3125-1.1406 0.3125zm-0.125-0.71875c0.28906 0 0.55078-0.078125 0.78125-0.23438 0.23828-0.16406 0.42578-0.39844 0.5625-0.70312 0.13281-0.30078 0.20312-0.66016 0.20312-1.0781 0-0.375-0.054687-0.70312-0.15625-0.98438-0.09375-0.28125-0.24609-0.5-0.45312-0.65625-0.21094-0.15625-0.48438-0.23438-0.82812-0.23438-0.23047 0-0.47656 0.0625-0.73438 0.1875-0.25 0.11719-0.50781 0.30469-0.76562 0.5625v2.5469c0.25 0.21094 0.49219 0.35938 0.73438 0.45312 0.25 0.09375 0.46875 0.14062 0.65625 0.14062z"/></g><g id="h"><path d="m3.4531 0.125c-0.51172 0-0.97656-0.10547-1.3906-0.3125-0.41797-0.20703-0.74609-0.50781-0.98438-0.90625-0.24219-0.40625-0.35938-0.89062-0.35938-1.4531 0-0.55078 0.11719-1.0234 0.35938-1.4219 0.23828-0.40625 0.55469-0.71094 0.95312-0.92188 0.39453-0.21875 0.82031-0.32812 1.2812-0.32812 0.48828 0 0.90625 0.10547 1.25 0.3125 0.34375 0.19922 0.60156 0.47656 0.78125 0.82812 0.1875 0.35547 0.28125 0.77344 0.28125 1.25 0 0.09375-0.007812 0.1875-0.015625 0.28125 0 0.09375-0.007812 0.17969-0.015625 0.25h-4.3125v-0.67188h3.7969l-0.21875 0.23438c0-0.59375-0.14062-1.0391-0.42188-1.3438-0.27344-0.30078-0.64062-0.45312-1.1094-0.45312-0.3125 0-0.60547 0.078125-0.875 0.23438-0.27344 0.14844-0.49219 0.37109-0.65625 0.67188-0.15625 0.29297-0.23438 0.65234-0.23438 1.0781 0 0.4375 0.085938 0.80469 0.26562 1.0938 0.17578 0.29297 0.41406 0.51562 0.71875 0.67188 0.30078 0.14844 0.64062 0.21875 1.0156 0.21875 0.30078 0 0.57812-0.039063 0.82812-0.125 0.25-0.09375 0.48828-0.21094 0.71875-0.35938l0.3125 0.5625c-0.25 0.16797-0.53906 0.3125-0.85938 0.4375-0.32422 0.11328-0.69531 0.17188-1.1094 0.17188z"/></g><g id="g"><path d="m4.125 0.125c-0.5 0-0.89844-0.089844-1.1875-0.26562-0.28125-0.17578-0.48438-0.42188-0.60938-0.73438-0.11719-0.3125-0.17188-0.67969-0.17188-1.1094v-2.4062h-1.4375v-0.64062l1.4688-0.0625 0.10938-1.625h0.71875v1.625h2.5v0.70312h-2.5v2.4219c0 0.30469 0.035156 0.55859 0.10938 0.76562 0.082031 0.21094 0.21875 0.36719 0.40625 0.46875 0.1875 0.10547 0.44141 0.15625 0.76562 0.15625 0.25 0 0.46875-0.019531 0.65625-0.0625 0.19531-0.039063 0.39062-0.097656 0.57812-0.17188l0.1875 0.64062c-0.23047 0.085938-0.47656 0.15234-0.73438 0.20312-0.25 0.0625-0.53906 0.09375-0.85938 0.09375z"/></g><g id="o"><path d="m0.89062-3.125v-0.65625h4.5v0.65625z"/></g><clipPath id="w"><path d="m0 0h279v77.789h-279z"/></clipPath><clipPath id="v"><path d="m0 24h76v53.043h-76z"/></clipPath><clipPath id="u"><path d="m31 44h50v33.043h-50z"/></clipPath><clipPath id="t"><path d="m153 26h126v25h-126z"/></clipPath><clipPath id="s"><path d="m56 56h70v21.043h-70z"/></clipPath><clipPath id="r"><path d="m99 16h74v61.043h-74z"/></clipPath></defs><g clip-path="url(#w)"><path d="m0 0h279v77.789h-279z" fill="#fff"/></g><path transform="matrix(.74799 0 0 .74799 .374 .374)" d="m4.0017 0.99881h13.996c0.40212 0 0.78335 0.078335 1.1489 0.22978 0.37079 0.15145 0.69457 0.37078 0.97658 0.64757 0.28201 0.28201 0.49612 0.60579 0.64757 0.97658 0.15145 0.36556 0.22978 0.75202 0.22978 1.1489v13.996c0 0.40212-0.078335 0.78335-0.22978 1.1489-0.15145 0.37079-0.36556 0.69457-0.64757 0.97658s-0.60579 0.49612-0.97658 0.64757c-0.36556 0.15145-0.74679 0.22978-1.1489 0.22978h-13.996c-0.3969 0-0.78335-0.078335-1.1489-0.22978-0.37079-0.15145-0.69457-0.36556-0.97658-0.64757-0.27678-0.28201-0.49612-0.60579-0.64757-0.97658-0.15145-0.36556-0.22978-0.74679-0.22978-1.1489v-13.996c0-0.3969 0.078335-0.78335 0.22978-1.1489 0.15145-0.37079 0.37078-0.69457 0.64757-0.97658 0.28201-0.27678 0.60579-0.49612 0.97658-0.64757 0.36556-0.15145 0.75202-0.22978 1.1489-0.22978z" fill="#f5f5f5" stroke="#656565"/><g fill="#333"><use x="5.0839891" y="11.219839" xlink:href="#l"/></g><path transform="matrix(.74799 0 0 .74799 .374 .374)" d="m4.0017 41.002h13.996c0.40212 0 0.78335 0.073112 1.1489 0.22456 0.37079 0.15667 0.69457 0.37079 0.97658 0.65279s0.49612 0.60579 0.64757 0.97135c0.15145 0.37079 0.22978 0.75202 0.22978 1.1489v14.001c0 0.3969-0.078335 0.77813-0.22978 1.1489-0.15145 0.36556-0.36556 0.68935-0.64757 0.97135s-0.60579 0.49612-0.97658 0.65279c-0.36556 0.15145-0.74679 0.22456-1.1489 0.22456h-13.996c-0.3969 0-0.78335-0.073113-1.1489-0.22456-0.37079-0.15667-0.69457-0.37079-0.97658-0.65279-0.27678-0.28201-0.49612-0.60579-0.64757-0.97135-0.15145-0.37079-0.22978-0.75202-0.22978-1.1489v-14.001c0-0.3969 0.078335-0.77813 0.22978-1.1489 0.15145-0.36556 0.37078-0.68935 0.64757-0.97135 0.28201-0.28201 0.60579-0.49612 0.97658-0.65279 0.36556-0.15145 0.75202-0.22456 1.1489-0.22456z" fill="#f5f5f5" stroke="#656565"/><g fill="#333"><use x="5.0839891" y="41.139408" xlink:href="#b"/></g><path transform="matrix(.74799 0 0 .74799 .374 .374)" d="m84.003 0.99881h83.996c0.3969 0 0.78335 0.078335 1.1489 0.22978 0.36556 0.15145 0.69457 0.37078 0.97135 0.64757 0.28201 0.28201 0.50134 0.60579 0.65279 0.97658 0.15145 0.36556 0.22978 0.75202 0.22978 1.1489v13.996c0 0.40212-0.078335 0.78335-0.22978 1.1489-0.15145 0.37079-0.37079 0.69457-0.65279 0.97658-0.27678 0.28201-0.60579 0.49612-0.97135 0.64757-0.36556 0.15145-0.75202 0.22978-1.1489 0.22978h-83.996c-0.40212 0-0.78335-0.078335-1.1489-0.22978-0.37079-0.15145-0.69457-0.36556-0.97658-0.64757s-0.49612-0.60579-0.64757-0.97658c-0.15145-0.36556-0.22978-0.74679-0.22978-1.1489v-13.996c0-0.3969 0.078335-0.78335 0.22978-1.1489 0.15145-0.37079 0.36556-0.69457 0.64757-0.97658 0.28201-0.27678 0.60579-0.49612 0.97658-0.64757 0.36556-0.15145 0.74679-0.22978 1.1489-0.22978z" fill="#f5f5f5" stroke="#656565"/><g fill="#333"><use x="62.831097" y="11.219839" xlink:href="#a"/></g><g fill="#333"><use x="69.114204" y="11.219839" xlink:href="#f"/></g><g fill="#333"><use x="75.397308" y="11.219839" xlink:href="#e"/></g><g fill="#333"><use x="81.680412" y="11.219839" xlink:href="#d"/></g><g fill="#333"><use x="87.963516" y="11.219839" xlink:href="#a"/></g><g fill="#333"><use x="94.24662" y="11.219839" xlink:href="#c"/></g><g fill="#333"><use x="100.52973" y="11.219839" xlink:href="#n"/></g><g fill="#333"><use x="106.81284" y="11.219839" xlink:href="#l"/></g><g fill="#333"><use x="113.09594" y="11.219839" xlink:href="#m"/></g><g fill="#333"><use x="119.37904" y="11.219839" xlink:href="#q"/></g><path transform="scale(.74799)" d="m20.999 10.998h51.759" fill="none" stroke="#656565" stroke-miterlimit="10" stroke-width="2"/><path transform="scale(.74799)" d="m78.758 10.998-8.0006 2.6738 2.0002-2.6738-2.0002-2.6686z" fill="#656565" stroke="#656565" stroke-miterlimit="10" stroke-width="2"/><g clip-path="url(#v)"><path transform="scale(.74799)" d="m10.998 61.002v19.996c0 6.6689 3.3371 10.001 10.001 10.001h51.759" fill="none" stroke="#666" stroke-miterlimit="10" stroke-width="2"/></g><path d="m58.91 68.066-5.9844 1.9961 1.4961-1.9961-1.4961-1.9961z" fill="#656565"/><g clip-path="url(#u)"><path transform="scale(.74799)" d="m78.758 90.999-8.0006 2.6686 2.0002-2.6686-2.0002-2.6686z" fill="none" stroke="#666" stroke-miterlimit="10" stroke-width="2"/></g><path transform="scale(.74799)" d="m20.999 51.001h181.76" fill="none" stroke="#656565" stroke-miterlimit="10" stroke-width="2"/><path transform="scale(.74799)" d="m208.76 51.001-7.9954 2.6686 2.0002-2.6686-2.0002-2.6738z" fill="#656565" stroke="#656565" stroke-miterlimit="10" stroke-width="2"/><path transform="scale(.74799)" d="m171 10.998h10.001c6.6637 0 10.001 3.3371 10.001 10.001v20.002c0 6.6637 1.9584 10.001 5.8803 10.001h5.8803" fill="none" stroke="#656565" stroke-miterlimit="10" stroke-width="2"/><path transform="scale(.74799)" d="m208.76 51.001-7.9954 2.6686 2.0002-2.6686-2.0002-2.6738z" fill="#656565" stroke="#656565" stroke-miterlimit="10" stroke-width="2"/><path d="m160.45 31.043h115.19c0.29688 0 0.58594 0.054687 0.85938 0.16797 0.27734 0.11719 0.51953 0.27734 0.73047 0.48828 0.20703 0.21094 0.37109 0.45312 0.48438 0.72656 0.11328 0.27734 0.17188 0.5625 0.17188 0.85938v10.473c0 0.29688-0.058593 0.58203-0.17188 0.85938-0.11328 0.27344-0.27734 0.51562-0.48438 0.72656-0.21094 0.21094-0.45312 0.37109-0.73047 0.48828-0.27344 0.11328-0.5625 0.16797-0.85938 0.16797h-115.19c-0.30078 0-0.58594-0.054687-0.85938-0.16797-0.27734-0.11719-0.51953-0.27734-0.73047-0.48828-0.20703-0.21094-0.37109-0.45312-0.48438-0.72656-0.11328-0.27734-0.17188-0.5625-0.17188-0.85938v-10.473c0-0.29688 0.058594-0.58203 0.17188-0.85938 0.11328-0.27344 0.27734-0.51562 0.48438-0.72656 0.21094-0.21094 0.45312-0.37109 0.73047-0.48828 0.27344-0.11328 0.55859-0.16797 0.85938-0.16797z" fill="#f5f5f5"/><g clip-path="url(#t)"><path transform="matrix(.74799 0 0 .74799 .374 .374)" d="m214 41.002h154c0.3969 0 0.78335 0.07311 1.1489 0.22456 0.37079 0.15667 0.69457 0.37079 0.97658 0.65279 0.27679 0.28201 0.49612 0.60579 0.64757 0.97135 0.15145 0.37079 0.22978 0.75202 0.22978 1.1489v14.001c0 0.3969-0.0783 0.77813-0.22978 1.1489-0.15145 0.36556-0.37078 0.68935-0.64757 0.97135-0.28201 0.28201-0.60579 0.49612-0.97658 0.65279-0.36556 0.15145-0.75201 0.22456-1.1489 0.22456h-154c-0.40212 0-0.78335-0.07311-1.1489-0.22456-0.37079-0.15667-0.69457-0.37079-0.97658-0.65279-0.27678-0.28201-0.49612-0.60579-0.64757-0.97135-0.15144-0.37079-0.22978-0.75202-0.22978-1.1489v-14.001c0-0.3969 0.0783-0.77813 0.22978-1.1489 0.15145-0.36556 0.37079-0.68935 0.64757-0.97135 0.28201-0.28201 0.60579-0.49612 0.97658-0.65279 0.36556-0.15145 0.74679-0.22456 1.1489-0.22456z" fill="none" stroke="#666"/></g><g fill="#333"><use x="161.10988" y="41.139408" xlink:href="#p"/></g><g fill="#333"><use x="167.39297" y="41.139408" xlink:href="#a"/></g><g fill="#333"><use x="173.67609" y="41.139408" xlink:href="#k"/></g><g fill="#333"><use x="179.9592" y="41.139408" xlink:href="#k"/></g><g fill="#333"><use x="186.24229" y="41.139408" xlink:href="#a"/></g><g fill="#333"><use x="192.52541" y="41.139408" xlink:href="#c"/></g><g fill="#333"><use x="198.8085" y="41.139408" xlink:href="#a"/></g><g fill="#333"><use x="205.09161" y="41.139408" xlink:href="#f"/></g><g fill="#333"><use x="211.37471" y="41.139408" xlink:href="#e"/></g><g fill="#333"><use x="217.65782" y="41.139408" xlink:href="#d"/></g><g fill="#333"><use x="223.94093" y="41.139408" xlink:href="#a"/></g><g fill="#333"><use x="230.22403" y="41.139408" xlink:href="#j"/></g><g fill="#333"><use x="236.50714" y="41.139408" xlink:href="#i"/></g><g fill="#333"><use x="242.79024" y="41.139408" xlink:href="#h"/></g><g fill="#333"><use x="249.07335" y="41.139408" xlink:href="#g"/></g><g fill="#333"><use x="255.35645" y="41.139408" xlink:href="#a"/></g><g fill="#333"><use x="261.63956" y="41.139408" xlink:href="#o"/></g><g fill="#333"><use x="267.92267" y="41.139408" xlink:href="#b"/></g><path d="m63.207 60.961h55.348c0.30078 0 0.58594 0.058593 0.85938 0.17188 0.27734 0.11328 0.51953 0.27344 0.73047 0.48438 0.20703 0.21094 0.37109 0.45312 0.48438 0.73047 0.11328 0.27344 0.17188 0.55859 0.17188 0.85938v10.469c0 0.29688-0.058593 0.58594-0.17188 0.85938-0.11328 0.27734-0.27734 0.51953-0.48438 0.72656-0.21094 0.21094-0.45312 0.375-0.73047 0.48828-0.27344 0.11328-0.55859 0.17188-0.85938 0.17188h-55.348c-0.30078 0-0.58594-0.058594-0.85938-0.17188-0.27734-0.11328-0.51953-0.27734-0.73047-0.48828-0.21094-0.20703-0.37109-0.44922-0.48438-0.72656-0.11328-0.27344-0.17188-0.5625-0.17188-0.85938v-10.469c0-0.30078 0.058593-0.58594 0.17188-0.85938 0.11328-0.27734 0.27344-0.51953 0.48438-0.73047 0.21094-0.21094 0.45312-0.37109 0.73047-0.48438 0.27344-0.11328 0.55859-0.17188 0.85938-0.17188z" fill="#f5f5f5"/><g clip-path="url(#s)"><path transform="matrix(.74799 0 0 .74799 .374 .374)" d="m84.003 81h73.995c0.40212 0 0.78335 0.07833 1.1489 0.22978 0.37079 0.15145 0.69457 0.36556 0.97658 0.64757 0.27678 0.28201 0.49612 0.60579 0.64757 0.97658 0.15145 0.36556 0.22978 0.74679 0.22978 1.1489v13.996c0 0.3969-0.0783 0.78335-0.22978 1.1489-0.15145 0.37079-0.37079 0.69457-0.64757 0.97136-0.28201 0.282-0.60579 0.50134-0.97658 0.65279-0.36556 0.15145-0.74679 0.22978-1.1489 0.22978h-73.995c-0.40212 0-0.78335-0.0783-1.1489-0.22978-0.37079-0.15145-0.69457-0.37079-0.97658-0.65279-0.28201-0.27679-0.49612-0.60057-0.64757-0.97136-0.15145-0.36556-0.22978-0.75202-0.22978-1.1489v-13.996c0-0.40212 0.07833-0.78335 0.22978-1.1489 0.15145-0.37079 0.36556-0.69457 0.64757-0.97658s0.60579-0.49612 0.97658-0.64757c0.36556-0.15145 0.74679-0.22978 1.1489-0.22978z" fill="none" stroke="#666"/></g><g fill="#333"><use x="65.367249" y="71.806969" xlink:href="#i"/></g><g fill="#333"><use x="71.650352" y="71.806969" xlink:href="#h"/></g><g fill="#333"><use x="77.933456" y="71.806969" xlink:href="#g"/></g><g fill="#333"><use x="84.21656" y="71.806969" xlink:href="#a"/></g><g fill="#333"><use x="90.499664" y="71.806969" xlink:href="#c"/></g><g fill="#333"><use x="96.782776" y="71.806969" xlink:href="#b"/></g><g fill="#333"><use x="103.06588" y="71.806969" xlink:href="#j"/></g><g fill="#333"><use x="109.34898" y="71.806969" xlink:href="#b"/></g><g clip-path="url(#r)"><path transform="scale(.74799)" d="m161 90.999h20.002c6.6637 0 10.001-3.3318 10.001-10.001v-19.996c0-6.6689 1.9584-10.001 5.8804-10.001h5.8804" fill="none" stroke="#666" stroke-miterlimit="10" stroke-width="2"/></g><path transform="scale(.74799)" d="m208.76 51.001-7.9954 2.6686 2.0002-2.6686-2.0002-2.6738z" fill="#656565" stroke="#656565" stroke-miterlimit="10" stroke-width="2"/></svg>